<svg width="408" height="80" viewBox="0 0 408 80" fill="none" xmlns="http://www.w3.org/2000/svg">
<g clip-path="url(#clip0_107_155)">
<path d="M25.8062 5.09241C19.1829 5.09241 13.2551 8.2391 9.27615 13.1952L9.26992 13.1919C9.25432 13.2117 9.24185 13.2316 9.22626 13.2514C7.34594 15.6089 5.90841 18.3693 5.04153 21.3938C-3.90793 50.1433 47.4969 75.1155 47.4969 75.1155C47.4969 75.1155 47.4969 75.1155 47.4969 28.0603V17.841C47.4969 17.841 43.9764 5.22448 25.8062 5.09241Z" fill="#40B4E7"/>
<path d="M89.9523 21.3972C89.0854 18.3694 87.6479 15.609 85.7675 13.2548C85.7519 13.235 85.7395 13.2152 85.7239 13.1954L85.7176 13.1987C81.7387 8.24252 75.8109 5.09583 69.1876 5.09583C51.0174 5.2279 47.4938 17.8444 47.4938 17.8444V28.0637C47.4938 75.1189 47.4938 75.1189 47.4938 75.1189C47.4938 75.1189 98.9017 50.1468 89.9523 21.3972Z" fill="#84D0F4"/>
<path d="M47.4969 24.7156C45.7756 24.7156 44.3787 26.1948 44.3787 28.0175V37.9231H47.4969V24.7156Z" fill="#ABD3E5"/>
<path d="M44.3787 44.5269V54.4325C44.3787 56.2552 45.7756 57.7344 47.4969 57.7344V44.5269H44.3787Z" fill="#ABD3E5"/>
<path d="M31.9055 41.225C31.9055 43.0476 33.3025 44.5269 35.0238 44.5269H44.3786V37.9231H35.0238C33.3025 37.9231 31.9055 39.4023 31.9055 41.225Z" fill="#ABD3E5"/>
<path d="M47.4969 37.9231H44.3787V44.5269H47.4969V37.9231Z" fill="#ABD3E5"/>
<path d="M47.4969 57.7344C49.2182 57.7344 50.6152 56.2552 50.6152 54.4325V44.5269H47.4969V57.7344Z" fill="white"/>
<path d="M50.6152 37.9231V28.0175C50.6152 26.1948 49.2182 24.7156 47.4969 24.7156V37.9231H50.6152Z" fill="white"/>
<path d="M59.9701 37.9231H50.6152V44.5269H59.9701C61.6914 44.5269 63.0884 43.0476 63.0884 41.225C63.0884 39.4023 61.6914 37.9231 59.9701 37.9231Z" fill="white"/>
<path d="M50.6152 37.9231H47.4969V44.5269H50.6152V37.9231Z" fill="white"/>
</g>
<path d="M133.817 57H128.688V39.4809L111.09 23.8557L111.169 19.9889H114.799L131.608 34.9038L148.417 19.9889H152.047L152.126 23.8557L133.817 40.1911V57ZM200.045 45.7152C200.045 53.2384 196.651 57 189.865 57C187.708 57 184.63 57 180.632 57C176.686 57.0526 173.635 57.0789 171.478 57.0789C167.795 57.0789 164.849 55.9215 162.639 53.6067C160.43 51.2392 159.325 48.2141 159.325 44.5314V32.2207C159.325 28.538 160.456 25.4866 162.718 23.0666C164.98 20.6465 167.953 19.4365 171.635 19.4365H198.151V24.566H171.635C169.531 24.566 167.821 25.3814 166.506 27.0123C165.191 28.5906 164.533 30.4583 164.533 32.6153V44.2947C164.533 46.3991 165.164 48.1878 166.427 49.6609C167.69 51.134 169.373 51.8968 171.478 51.9494L188.839 52.2651C192.311 52.3177 194.179 50.2133 194.442 45.9519C194.6 43.9527 194.179 42.4007 193.179 41.2959C192.18 40.1911 190.838 39.6387 189.155 39.6387H176.844L176.923 34.5882L189.865 34.5092C192.811 34.5092 195.231 35.5088 197.125 37.508C199.072 39.5072 200.045 42.2429 200.045 45.7152ZM245.643 57.0789H221.653C218.076 57.0789 215.13 55.8426 212.815 53.3699C210.5 50.8972 209.342 47.8722 209.342 44.2947V32.2207C209.342 28.6432 210.5 25.6182 212.815 23.1455C215.13 20.6728 218.076 19.4365 221.653 19.4365H245.643V24.566H221.653C219.601 24.566 217.892 25.3814 216.524 27.0123C215.208 28.6432 214.551 30.5109 214.551 32.6153V36.3243L245.407 36.4032V41.5327L214.551 41.4538V43.9001C214.551 46.0045 215.208 47.8722 216.524 49.5031C217.892 51.134 219.601 51.9494 221.653 51.9494H245.643V57.0789ZM260.254 57H255.124V19.3576H260.254V57ZM312.763 32.2207L312.684 57.0789H307.554V35.8508H282.854C280.487 35.8508 278.645 36.64 277.33 38.2183C276.067 39.7965 275.436 41.7957 275.436 44.2158C275.436 46.2676 276.146 48.0563 277.567 49.582C279.04 51.1077 280.802 51.8705 282.854 51.8705H300.452V57H282.854C278.961 57 275.857 55.6584 273.542 52.9753C271.385 50.4501 270.307 47.2146 270.307 43.2688C270.307 39.6913 271.517 36.7189 273.937 34.3514C276.357 31.9314 279.329 30.7213 282.854 30.7213H307.397C307.028 28.9326 306.213 27.4595 304.95 26.3021C303.688 25.1447 302.188 24.566 300.452 24.566H276.462V19.4365H300.452C304.03 19.4365 306.976 20.6728 309.291 23.1455C311.605 25.6182 312.763 28.6432 312.763 32.2207ZM367.426 57H362.296V32.5364C362.296 30.4846 361.56 28.7485 360.087 27.328C358.666 25.8549 356.93 25.1184 354.878 25.1184H337.912C335.86 25.1184 334.097 25.8549 332.624 27.328C331.204 28.7485 330.494 30.4846 330.494 32.5364V57H325.364V32.5364C325.364 28.9589 326.548 25.9864 328.915 23.619C331.335 21.1989 334.334 19.9889 337.912 19.9889H354.878C358.456 19.9889 361.428 21.2778 363.796 23.8557C366.216 26.4336 367.426 29.5113 367.426 33.0888V57Z" fill="#40B4E7"/>
<defs>
<clipPath id="clip0_107_155">
<rect width="87" height="70" fill="white" transform="translate(4 5)"/>
</clipPath>
</defs>
</svg>
